name rise30.6535peak61.5555fall82.9339.mot
datacolumns 19
datarows 27
range 17.21660800000000 17.25993000000000
endheader
time	ground_force1_vx	ground_force1_vy	ground_force1_vz	ground_force1_px	ground_force1_py	ground_force1_pz	ground_force2_vx	ground_force2_vy	ground_force2_vz	ground_force2_px	ground_force2_py	ground_force2_pz	ground_torque1_x	ground_torque1_y	ground_torque1_z	ground_torque2_x	ground_torque2_y	ground_torque2_z	
17.21660800000000	65.17806500000000	789.32258400000001	55.95547800000000	0.36622300000000	0.00000000000000	0.12326700000000	0.00000000000000	0.00000000000000	0.00000000000000	0.00000000000000	0.00000000000000	0.00000000000000	0.00000000000000	24.88107100000000	0.00000000000000	0.00000000000000	0.00000000000000	0.00000000000000	
17.21826700000000	64.62830300000000	791.81552099999999	55.91627700000000	0.36514500000000	0.00000000000000	0.12329500000000	0.00000000000000	0.00000000000000	0.00000000000000	0.00000000000000	0.00000000000000	0.00000000000000	0.00000000000000	24.83677700000000	0.00000000000000	0.00000000000000	0.00000000000000	0.00000000000000	
17.21993200000000	64.08300800000001	794.14597800000001	55.88342800000000	0.36409900000000	0.00000000000000	0.12332500000000	0.00000000000000	0.00000000000000	0.00000000000000	0.00000000000000	0.00000000000000	0.00000000000000	0.00000000000000	24.79937600000000	0.00000000000000	0.00000000000000	0.00000000000000	0.00000000000000	
17.22161900000000	63.54249600000000	796.31209200000001	55.85705000000000	0.36308500000000	0.00000000000000	0.12335600000000	0.00000000000000	0.00000000000000	0.00000000000000	0.00000000000000	0.00000000000000	0.00000000000000	0.00000000000000	24.76892500000000	0.00000000000000	0.00000000000000	0.00000000000000	0.00000000000000	
17.22326600000000	63.00700100000000	798.31228099999998	55.83715600000000	0.36210200000000	0.00000000000000	0.12338900000000	0.00000000000000	0.00000000000000	0.00000000000000	0.00000000000000	0.00000000000000	0.00000000000000	0.00000000000000	24.74541300000000	0.00000000000000	0.00000000000000	0.00000000000000	0.00000000000000	
17.22493400000000	62.47667100000000	800.14526000000001	55.82365900000000	0.36114900000000	0.00000000000000	0.12342400000000	0.00000000000000	0.00000000000000	0.00000000000000	0.00000000000000	0.00000000000000	0.00000000000000	0.00000000000000	24.72875600000000	0.00000000000000	0.00000000000000	0.00000000000000	0.00000000000000	
17.22660200000000	61.95158200000000	801.81004499999995	55.81637400000000	0.36022700000000	0.00000000000000	0.12346000000000	0.00000000000000	0.00000000000000	0.00000000000000	0.00000000000000	0.00000000000000	0.00000000000000	0.00000000000000	24.71880600000000	0.00000000000000	0.00000000000000	0.00000000000000	0.00000000000000	
17.22826300000000	61.43173300000000	803.30597499999999	55.81502900000000	0.35933300000000	0.00000000000000	0.12349800000000	0.00000000000000	0.00000000000000	0.00000000000000	0.00000000000000	0.00000000000000	0.00000000000000	0.00000000000000	24.71534900000000	0.00000000000000	0.00000000000000	0.00000000000000	0.00000000000000	
17.22993400000000	60.91705500000000	804.63270899999998	55.81926600000000	0.35846700000000	0.00000000000000	0.12353800000000	0.00000000000000	0.00000000000000	0.00000000000000	0.00000000000000	0.00000000000000	0.00000000000000	0.00000000000000	24.71811500000000	0.00000000000000	0.00000000000000	0.00000000000000	0.00000000000000	
17.23159800000000	60.40741700000000	805.79024300000003	55.82864900000000	0.35762700000000	0.00000000000000	0.12357900000000	0.00000000000000	0.00000000000000	0.00000000000000	0.00000000000000	0.00000000000000	0.00000000000000	0.00000000000000	24.72677900000000	0.00000000000000	0.00000000000000	0.00000000000000	0.00000000000000	
17.23326400000000	59.90262600000000	806.77891099999999	55.84267100000000	0.35681300000000	0.00000000000000	0.12362100000000	0.00000000000000	0.00000000000000	0.00000000000000	0.00000000000000	0.00000000000000	0.00000000000000	0.00000000000000	24.74096600000000	0.00000000000000	0.00000000000000	0.00000000000000	0.00000000000000	
17.23493200000000	59.40243700000000	807.59938899999997	55.86076000000000	0.35602200000000	0.00000000000000	0.12366500000000	0.00000000000000	0.00000000000000	0.00000000000000	0.00000000000000	0.00000000000000	0.00000000000000	0.00000000000000	24.76025300000000	0.00000000000000	0.00000000000000	0.00000000000000	0.00000000000000	
17.23661100000000	58.90655500000000	808.25269700000001	55.88228700000000	0.35525300000000	0.00000000000000	0.12371000000000	0.00000000000000	0.00000000000000	0.00000000000000	0.00000000000000	0.00000000000000	0.00000000000000	0.00000000000000	24.78417700000000	0.00000000000000	0.00000000000000	0.00000000000000	0.00000000000000	
17.23826300000000	58.41464000000000	808.74020199999995	55.90657300000000	0.35450400000000	0.00000000000000	0.12375600000000	0.00000000000000	0.00000000000000	0.00000000000000	0.00000000000000	0.00000000000000	0.00000000000000	0.00000000000000	24.81223900000000	0.00000000000000	0.00000000000000	0.00000000000000	0.00000000000000	
17.23992800000000	57.92631700000000	809.06361200000003	55.93289700000000	0.35377400000000	0.00000000000000	0.12380400000000	0.00000000000000	0.00000000000000	0.00000000000000	0.00000000000000	0.00000000000000	0.00000000000000	0.00000000000000	24.84390700000000	0.00000000000000	0.00000000000000	0.00000000000000	0.00000000000000	
17.24160100000000	57.44117600000000	809.22497699999997	55.96050200000000	0.35306200000000	0.00000000000000	0.12385300000000	0.00000000000000	0.00000000000000	0.00000000000000	0.00000000000000	0.00000000000000	0.00000000000000	0.00000000000000	24.87862200000000	0.00000000000000	0.00000000000000	0.00000000000000	0.00000000000000	
17.24326500000000	56.95877900000000	809.22668299999998	55.98860400000000	0.35236400000000	0.00000000000000	0.12390300000000	0.00000000000000	0.00000000000000	0.00000000000000	0.00000000000000	0.00000000000000	0.00000000000000	0.00000000000000	24.91580100000000	0.00000000000000	0.00000000000000	0.00000000000000	0.00000000000000	
17.24493000000000	56.47866800000000	809.07144400000004	56.01640000000000	0.35167900000000	0.00000000000000	0.12395400000000	0.00000000000000	0.00000000000000	0.00000000000000	0.00000000000000	0.00000000000000	0.00000000000000	0.00000000000000	24.95484600000000	0.00000000000000	0.00000000000000	0.00000000000000	0.00000000000000	
17.24660100000000	56.00036700000000	808.76229699999999	56.04307200000000	0.35100500000000	0.00000000000000	0.12400600000000	0.00000000000000	0.00000000000000	0.00000000000000	0.00000000000000	0.00000000000000	0.00000000000000	0.00000000000000	24.99514200000000	0.00000000000000	0.00000000000000	0.00000000000000	0.00000000000000	
17.24826200000000	55.52339000000000	808.30259100000001	56.06779800000000	0.35034100000000	0.00000000000000	0.12405900000000	0.00000000000000	0.00000000000000	0.00000000000000	0.00000000000000	0.00000000000000	0.00000000000000	0.00000000000000	25.03606800000000	0.00000000000000	0.00000000000000	0.00000000000000	0.00000000000000	
17.24992800000000	55.04724300000000	807.69597599999997	56.08975800000000	0.34968300000000	0.00000000000000	0.12411300000000	0.00000000000000	0.00000000000000	0.00000000000000	0.00000000000000	0.00000000000000	0.00000000000000	0.00000000000000	25.07699900000000	0.00000000000000	0.00000000000000	0.00000000000000	0.00000000000000	
17.25160400000000	54.57143300000000	806.94639299999994	56.10814200000000	0.34903000000000	0.00000000000000	0.12416700000000	0.00000000000000	0.00000000000000	0.00000000000000	0.00000000000000	0.00000000000000	0.00000000000000	0.00000000000000	25.11730900000000	0.00000000000000	0.00000000000000	0.00000000000000	0.00000000000000	
17.25326500000000	54.09547000000000	806.05805599999997	56.12215100000000	0.34837900000000	0.00000000000000	0.12422300000000	0.00000000000000	0.00000000000000	0.00000000000000	0.00000000000000	0.00000000000000	0.00000000000000	0.00000000000000	25.15637700000000	0.00000000000000	0.00000000000000	0.00000000000000	0.00000000000000	
17.25493100000000	53.61887100000000	805.03544299999999	56.13101200000000	0.34772900000000	0.00000000000000	0.12427900000000	0.00000000000000	0.00000000000000	0.00000000000000	0.00000000000000	0.00000000000000	0.00000000000000	0.00000000000000	25.19359300000000	0.00000000000000	0.00000000000000	0.00000000000000	0.00000000000000	
17.25659700000000	53.14116800000000	803.88327800000002	56.13397700000000	0.34707800000000	0.00000000000000	0.12433600000000	0.00000000000000	0.00000000000000	0.00000000000000	0.00000000000000	0.00000000000000	0.00000000000000	0.00000000000000	25.22835700000000	0.00000000000000	0.00000000000000	0.00000000000000	0.00000000000000	
17.25826500000000	52.66191000000000	802.60651499999994	56.13033200000000	0.34642200000000	0.00000000000000	0.12439300000000	0.00000000000000	0.00000000000000	0.00000000000000	0.00000000000000	0.00000000000000	0.00000000000000	0.00000000000000	25.26008800000000	0.00000000000000	0.00000000000000	0.00000000000000	0.00000000000000	
17.25993000000000	52.18066500000000	801.21031900000003	56.11940000000000	0.34576000000000	0.00000000000000	0.12445200000000	0.00000000000000	0.00000000000000	0.00000000000000	0.00000000000000	0.00000000000000	0.00000000000000	0.00000000000000	25.28822600000000	0.00000000000000	0.00000000000000	0.00000000000000	0.00000000000000	
